<svg xmlns="http://www.w3.org/2000/svg" width="300" height="300" viewBox="0 0 300 300">
    <g fill="none" fill-rule="evenodd">
        <path fill="#000" d="M0 0h300v300H0z"/>
        <g fill="#FFF">
            <path d="M191.848 89.456c2.145 2.34 6.843 2.239 9.636 3.955-3.77.927-8.518.924-11.934 2.193.805-2.015 1.527-4.104 2.298-6.148M165.228 97.581c-1.13 4.929-3.492 10.568-4.817 16.034 7.293.099 14.986-1.324 22.485-1.756 1.016-1.299 1.513-3.09 2.068-4.831 1.503 2.036 2.562 5.85 1.148 8.784-11.39-.153-19.577 8.775-30.75 8.785-5.004.006-9.257-2.75-6.886-8.126 3.346-7.588 11.642-12.887 16.752-18.89"/>
            <path d="M200.11 80.668c-2.912.338-4.98 3.386-6.883 4.393.138-.012.269-.034.224-.22.35-1.5 1.015-2.694 1.15-4.392-15.272-5.148-30.134 2.38-41.074 8.125-8.748 4.595-16.554 9.991-22.031 15.375 1.98-3.229 4.081-6.424 6.427-9.443 2.376-3.064 5.024-5.836 7.116-8.566-4.575-1.146-9.161-2.357-13.775-3.296-6.557-1.335-15.678-3.55-21.11-.659-1.573.836-2.858 2.892-4.36 3.076-1.243.155-3.29-.715-4.82-.877-5.608-.597-10.766-.099-15.834.877-4.745.91-14.781 2.526-16.066 6.807-.824 2.75 1.011 5.415.69 8.132-.315 2.675-2.998 6.213-4.36 8.347-1.669 2.614-3.365 4.93-6.198 6.147-1.718-8.183.151-15.461 1.608-22.402.899-4.277 2.711-8.655 1.15-12.962-4.376-.581-8.061 2.733-12.394 4.391-8.14 3.119-17.206 5.96-18.358 14.938-.649 5.057 1.338 8.273 2.754 11.864 3.037 7.714 6.79 14.244 11.246 20.208-1.214 2.136-4.075 2.693-4.363 5.706 1.295 1.756 3.992 1.986 6.656 1.98 7.701-.017 14.014-3.725 19.733-6.81 12.454-6.706 20.822-17.032 29.606-26.797 1.543-1.718 2.813-3.786 4.822-4.832 1.974 8.677-1.865 13.316-4.595 20.426-1.051 2.74-4.37 11.312-2.753 15.372 1.773 4.468 16.879 4.663 20.884 1.765 2.018-1.46 2.82-4.76 3.905-6.81 1.382-2.638 2.578-4.917 3.67-7.249.06 9.624 7.528 12.448 15.602 14.497 17.163 4.343 34.468-3.415 43.83-8.782-1.17 7.128 1.722 7.843 7.575 9.005 15.132 2.99 30.373-.461 42.683-3.3 11.284-2.6 20.359-4.437 22.031-15.157-1.807-1.496-6.32-1.31-9.408-.876-9.1 1.274-17.913 5.68-30.062 4.831-2.217-.154-7.004-.895-7.349-2.193-.533-2.029 3.26-3.448 6.434-3.955 9.106-1.476 22.268.014 29.597-2.64 3.522-1.272 7.767-4.941 7.34-9.005-.277-2.743-4.02-4.18-7.571-4.389-10.041-.6-17.219 5.01-27.758 3.074 1.317-1.595 1.553-4.219 3.208-5.492 7.707-.154 15.196 1.312 22.49.878 10.14-.607 15.858-4.694 20.654-10.104.514-.582 1.8-1.21 1.377-2.194-17.615-2.565-41.625-9.359-63.34-6.812m79.855.88c.28 1.06-.955 2.078-1.6 2.856-5.4 6.496-11.39 14.178-18.586 19.11.52 2.584.243 6.012-.694 7.904 1.884 2.306 3.883 4.489 5.05 7.472-1.533 7.791-5.095 13.84-10.782 17.792-5.556 3.853-13.064 5.37-21.577 7.249-16.463 3.631-43.551 7.214-55.764-2.2-13.224 7.426-39.951 8.406-52.32-.44-8.793 10.652-43.478 9.719-38.319-11.42-6.43 4.66-15.942 11.089-25.017 14.718-10.522 4.202-30.45 3.73-28.458-10.544.24-1.7.99-2.66 1.837-4.174-3.077-5.143-5.023-8.71-6.884-13.181-1.784-4.287-4.506-9.164-4.82-15.154-.666-12.735 9.703-20.812 19.968-24.602 5.242-1.94 9.499-4.739 14.687-6.15 7.754-2.114 14.403 1.969 14.914 8.787 9.016-2.562 19.995-5.388 31.9-3.735 9.48-7.055 27.992-2.696 40.16.657 2.75.759 6.454 2.721 8.49 2.637 1.726-.067 4.843-2.307 6.65-3.075 8.539-3.622 19.7-7.479 31.901-5.49 2.31.374 4.425 1.545 6.882 1.757 1.671.144 3.711-.357 5.51-.438 28.513-1.332 52.254 5.994 76.872 9.664"/>
        </g>
        <path fill="#FFF" d="M64.206 230.981c-.613 0-.92-.308-.92-.925v-49.352c0-.37-.184-.556-.551-.556H46.919c-.613 0-.919-.308-.919-.926v-10.278c0-.617.306-.925.92-.925h46.25c.613 0 .92.308.92.925v10.278c0 .618-.307.926-.92.926H77.354c-.367 0-.551.185-.551.556v49.352c0 .617-.307.925-.92.925H64.206zm38.422-62.037c0-.617.307-.925.92-.925h40.09c.612 0 .919.308.919.925v9.908c0 .617-.307.926-.92.926h-26.94c-.368 0-.552.185-.552.555v12.5c0 .37.184.556.551.556h22.436c.613 0 .92.309.92.926v9.815c0 .617-.307.926-.92.926h-22.436c-.367 0-.551.185-.551.555v13.056c0 .37.184.555.551.555h26.941c.613 0 .92.309.92.926v9.908c0 .617-.307.925-.92.925h-40.09c-.612 0-.919-.308-.919-.925v-61.112zm50.544 47.593a21.04 21.04 0 0 1-.874-3.01 31.417 31.417 0 0 1-.505-3.425 74.782 74.782 0 0 1-.276-4.445 174.53 174.53 0 0 1-.092-6.157c0-2.407.03-4.46.092-6.157.061-1.698.153-3.18.276-4.445.122-1.265.29-2.392.505-3.38a25.83 25.83 0 0 1 .874-3.055c1.655-5.185 4.398-9.059 8.23-11.62 3.83-2.562 8.505-3.843 14.021-3.843 5.334 0 9.854 1.22 13.563 3.657 3.708 2.439 6.452 5.88 8.23 10.324.306.556.153.926-.46 1.112l-10.023 4.537c-.552.308-.98.154-1.287-.463-.858-2.037-2.069-3.735-3.632-5.093-1.563-1.358-3.663-2.037-6.299-2.037-2.452 0-4.46.617-6.022 1.852-1.563 1.234-2.682 2.932-3.356 5.092a14.07 14.07 0 0 0-.46 1.806c-.123.648-.23 1.466-.322 2.454a52.969 52.969 0 0 0-.184 3.703 276.96 276.96 0 0 0-.046 5.556c0 2.222.016 4.074.046 5.556.03 1.481.092 2.716.184 3.703.092.988.2 1.806.322 2.454.123.648.276 1.25.46 1.806.674 2.16 1.793 3.858 3.356 5.092 1.563 1.235 3.57 1.852 6.022 1.852 2.636 0 4.736-.679 6.299-2.037 1.563-1.358 2.774-3.056 3.632-5.093.306-.617.735-.771 1.287-.463l10.023 4.537c.613.186.766.556.46 1.112-1.778 4.444-4.522 7.885-8.23 10.324-3.709 2.438-8.23 3.657-13.563 3.657-5.516 0-10.19-1.28-14.022-3.843-3.83-2.561-6.574-6.435-8.23-11.62zm51.28-47.593c0-.617.306-.925.919-.925h11.677c.613 0 .92.308.92.925v23.612c0 .37.184.555.551.555h20.413c.368 0 .552-.185.552-.555v-23.612c0-.617.306-.925.92-.925h11.677c.613 0 .919.308.919.925v61.112c0 .617-.306.925-.92.925h-11.677c-.613 0-.92-.308-.92-.925v-24.26c0-.37-.183-.555-.551-.555h-20.413c-.367 0-.551.185-.551.555v24.26c0 .617-.307.925-.92.925h-11.677c-.613 0-.92-.308-.92-.925v-61.112z"/>
    </g>
</svg>
